# xmcd
#
# Track frame offsets:
#	150
#	29975
#	65257
#	94837
#	115922
#	155237
#
# Disc length: 2493 seconds
# Revision: 0
# Processed by: cddbd v1.5.2PL0 Copyright (c) Steve Scherf et al.
# Submitted via: cdrLabel 7.1
#
DISCID=5309bb06
DTITLE=Audio CD
DYEAR=2006
DGENRE=
TTITLE0=Stopa 1
TTITLE1=Stopa 2
TTITLE2=Stopa 3
TTITLE3=Stopa 4
TTITLE4=Stopa 5
TTITLE5=Stopa 6
EXTD=
EXTT0=
EXTT1=
EXTT2=
EXTT3=
EXTT4=
EXTT5=
PLAYORDER=
